<svg xmlns="http://www.w3.org/2000/svg" version="1.1" xmlns:xlink="http://www.w3.org/1999/xlink" xmlns:svgjs="http://svgjs.dev/svgjs" width="100%" height="100%" viewBox="0 0 1000 600"><rect width="1000" height="600" x="0" y="0" fill="#91cac9"/><g><circle r="166.66666666666666" cx="512.3514811197916" cy="474.37302680135963" fill="#317773" transform="matrix(0.43785274442610883,0,0,0.4378527444261087,-14.81766482242475,92.2944823133517)"/><path d="M337.5721257089708 546.8979862764417L319.32577076865596 546.8979862764417L372.79852704484676 401.8480984228347L391.2175604230826 401.8480984228347L444.48885852169894 546.8979862764417L426.0410454038097 546.8979862764417L412.7735854235492 509.5994436855142L351.04104386680575 509.5994436855142L337.5721257089708 546.8979862764417ZM381.8929247753507 423.8070397784502L356.22139700443455 495.49737125530237L407.59323228592035 495.49737125530237L381.8929247753507 423.8070397784502ZM510.5959205057734 546.8979862764417L466.04488352216555 546.8979862764417L466.04488352216555 401.8480984228347L510.5959205057734 401.8480984228347Q548.9305337242266 401.8480984228347 567.0617697059275 421.33198216824974Q585.1930056876284 440.8158659136648 585.1930056876284 474.77595870478706L585.1930056876284 474.77595870478706Q585.1930056876284 508.1604567028395 567.0617697059275 527.5292214896406Q548.9305337242266 546.8979862764417 510.5959205057734 546.8979862764417L510.5959205057734 546.8979862764417ZM483.42784627287557 416.3530872081954L483.42784627287557 532.3929974910809L510.164224410971 532.3929974910809Q531.3173330562887 532.3929974910809 543.8365198055583 525.4570802345891Q556.3844862944815 518.5211629780971 561.7662976096848 505.5702801340251Q567.148108924888 492.61939728995304 567.148108924888 474.77595870478706L567.148108924888 474.77595870478706Q567.148108924888 456.55838350412574 561.7662976096848 443.49238170143974Q556.3844862944815 430.45515963840717 543.8365198055583 423.4041234233013Q531.3173330562887 416.3530872081954 510.164224410971 416.3530872081954L510.164224410971 416.3530872081954L483.42784627287557 416.3530872081954ZM656.4516410696781 549.3730438866421L656.4516410696781 549.3730438866421Q640.5076653016429 549.3730438866421 628.7079720437105 543.58831621629Q616.8794990461247 537.7748088062842 610.4616171033956 527.4141025310266Q604.0437351606665 517.053396255769 604.0437351606665 503.3830199203596L604.0437351606665 503.3830199203596L622.261310361328 503.3830199203596Q622.261310361328 511.8730431181401 626.2041346938565 519.03919829186Q630.146959026385 526.1765737259263 637.7160305552538 530.4359751946434Q645.2851020841226 534.666596923707 656.4516410696781 534.666596923707L656.4516410696781 534.666596923707Q671.1868677722669 534.666596923707 679.245194875245 527.615560708601Q687.3323017178766 520.5933042331487 687.3323017178766 510.00236004066306L687.3323017178766 510.00236004066306Q687.3323017178766 501.310878665308 683.619715302576 496.01540656906525Q679.8783491476217 490.74871421247593 673.5468064238532 487.4390441523242Q667.2440434397381 484.10059435251895 659.0418176384926 481.62553674231856Q650.8683715769005 479.1504791321181 641.9466522843175 476.0422672495408L641.9466522843175 476.0422672495408Q625.1680640663308 470.22875983953514 617.0809572236992 461.6236176831406Q609.022630120721 453.01847552674604 609.022630120721 439.14664101376223L609.022630120721 439.14664101376223Q608.7923922034929 427.54840593340435 614.4044414359241 418.54034742186093Q619.987710928702 409.50350917066396 630.2620779849992 404.4382749916491Q640.5076653016429 399.37304081263426 654.6097377318545 399.37304081263426L654.6097377318545 399.37304081263426Q668.4815722448384 399.37304081263426 678.727159561482 404.55339395026306Q689.0015266177793 409.7337470878919 694.6999150691709 418.8281448183958Q700.3983035205626 427.95132228855323 700.599761698137 439.5495573689111L700.599761698137 439.5495573689111L682.3534067578223 439.5495573689111Q682.3534067578223 433.56337152098445 679.245194875245 427.63474515236487Q676.1369829926678 421.73489852339867 669.8342200085526 418.022312108098Q663.5026772847841 414.2809459531439 653.9765834594778 414.2809459531439L653.9765834594778 414.2809459531439Q642.1768902015453 414.0794877755694 634.6078186726766 420.295911540724Q627.0387471438078 426.5123353058786 627.0387471438078 437.4774161138596L627.0387471438078 437.4774161138596Q627.0387471438078 446.8020517615915 632.3342192400507 451.7809467216458Q637.6009115966399 456.7598416817002 647.1270054219463 459.98317252289144Q656.681878986906 463.17772362442923 669.1147265172153 467.3220061345323L669.1147265172153 467.3220061345323Q679.4754327924729 471.06337228948644 687.763997812679 476.0422672495408Q696.0525628328851 480.9923824699417 700.7148806567511 488.8780311349989Q705.3771984806172 496.7636798000561 705.3771984806172 508.9662894131373L705.3771984806172 508.9662894131373Q705.3771984806172 519.326995688395 699.9666074257602 528.5652921171663Q694.5847961105569 537.7748088062842 683.7060545215365 543.58831621629Q672.827312932516 549.3730438866421 656.4516410696781 549.3730438866421Z " fill="#ffffff" transform="matrix(0.43785274442610883,0,0,0.4378527444261087,-14.81766482242475,92.2944823133517)"/><path d="M776.2265911272195 512.825039479816L762.3514818874039 512.825039479816L803.0138682715954 402.5244865323864L817.0202876934911 402.5244865323864L857.5294788652554 512.825039479816L843.5011744130129 512.825039479816L833.4121754231786 484.4620401504769L786.4687853294809 484.4620401504769L776.2265911272195 512.825039479816ZM809.9295378611564 419.2227646869278L790.408090791889 473.73837528058795L829.4728699607704 473.73837528058795L809.9295378611564 419.2227646869278ZM886.3520638318755 512.825039479816L873.1335055024613 512.825039479816L873.1335055024613 434.6735961117066L885.1046171021128 434.6735961117066L885.8924781945944 448.70190056394915Q889.6785884445758 441.28287527641373 896.7693382769105 437.03717938915156Q903.8600881092452 432.7695984715427 912.8329505513973 432.7695984715427L912.8329505513973 432.7695984715427Q926.7080597912128 432.7695984715427 934.98060126227 441.2172201853736Q943.2531427333272 449.6429568688578 943.2531427333272 467.1290961158809L943.2531427333272 467.1290961158809L943.2531427333272 512.825039479816L930.0126993735663 512.825039479816L930.0126993735663 468.55162308841716Q930.0126993735663 444.1279292214863 909.8347013938976 444.1279292214863L909.8347013938976 444.1279292214863Q899.7457024040633 444.1279292214863 893.0488831179694 451.4594143876349Q886.3520638318755 458.7690145234368 886.3520638318755 472.3377333383984L886.3520638318755 472.3377333383984L886.3520638318755 512.825039479816ZM971.9225324875202 417.3406520771105L971.9225324875202 417.3406520771105Q968.136422237539 417.3406520771105 965.4664485352401 414.73633346585177Q962.7745898025945 412.132014854593 962.7745898025945 408.19270939218484L962.7745898025945 408.19270939218484Q962.7745898025945 404.4065991422036 965.4664485352401 401.8898206523317Q968.136422237539 399.3730421624598 971.9225324875202 399.3730421624598L971.9225324875202 399.3730421624598Q975.7086427375015 399.3730421624598 978.3129613487603 401.8898206523317Q980.8953949296723 404.4065991422036 980.8953949296723 408.19270939218484L980.8953949296723 408.19270939218484Q980.8953949296723 412.132014854593 978.3129613487603 414.73633346585177Q975.7086427375015 417.3406520771105 971.9225324875202 417.3406520771105ZM956.1653106378874 547.4909275490081L947.9803092882171 547.4909275490081L947.9803092882171 536.1544818294112L954.1081177852965 536.1544818294112Q959.9514208878686 536.1544818294112 962.5557394991274 533.7033584305794Q965.1381730800395 531.2522350317477 965.1381730800395 525.4308169595222L965.1381730800395 525.4308169595222L965.1381730800395 434.6735961117066L978.3786164398003 434.6735961117066L978.3786164398003 525.7372073843762Q978.3786164398003 537.0955381343199 972.7103935800019 542.2822903264907Q967.0421707202034 547.4909275490081 956.1653106378874 547.4909275490081L956.1653106378874 547.4909275490081ZM1027.379199386089 514.7071520896333L1027.379199386089 514.7071520896333Q1017.6184758514554 514.7071520896333 1011.1623918991753 511.4025125072797Q1004.7063079468952 508.09787292492615 1001.5548635769686 502.58284527755467Q998.403419207042 497.0678176301832 998.403419207042 490.6117336779031L998.403419207042 490.6117336779031Q998.403419207042 478.6406220782515 1007.529476861621 472.1626530956247Q1016.6774195465468 465.7065691433446 1032.4346413961796 465.7065691433446L1032.4346413961796 465.7065691433446L1053.5536956807568 465.7065691433446L1053.5536956807568 464.76551283843594Q1053.5536956807568 454.5233186361746 1048.1918632458123 449.249026322617Q1042.8300308108678 443.9747340090593 1033.857168368716 443.9747340090593L1033.857168368716 443.9747340090593Q1026.1317526563264 443.9747340090593 1020.5291848875681 447.82649935008067Q1014.9485021491565 451.678264691102 1013.5259751766202 459.0972899786375L1013.5259751766202 459.0972899786375L999.9791413920053 459.0972899786375Q1000.767002484487 450.58401317376644 1005.713019342844 444.76259510154097Q1010.6809212315476 438.9192919989688 1018.099946519083 435.8553877504291Q1025.4970867762718 432.7695984715427 1033.857168368716 432.7695984715427L1033.857168368716 432.7695984715427Q1050.2271710680566 432.7695984715427 1058.4997125391137 441.5236106102276Q1066.772254010171 450.27762274891245 1066.772254010171 464.76551283843594L1066.772254010171 464.76551283843594L1066.772254010171 512.825039479816L1054.9543376229465 512.825039479816L1054.166476530465 498.7967350275735Q1050.8618369481112 505.4278992226273 1044.493293117218 510.0675256561303Q1038.1028642559781 514.7071520896333 1027.379199386089 514.7071520896333ZM1029.4363922386801 503.5239015824633L1029.4363922386801 503.5239015824633Q1037.0086127386423 503.5239015824633 1042.436100264627 499.5845961200551Q1047.8635877906117 495.6452906576469 1050.7086417356843 489.3424019177938Q1053.5536956807568 483.03951317794065 1053.5536956807568 476.1019585580329L1053.5536956807568 476.1019585580329L1053.5536956807568 475.9487633456059L1033.5288929135152 475.9487633456059Q1021.8641717387176 475.9487633456059 1017.0713500927876 479.97560892940095Q1012.2566434165109 483.9805694828493 1012.2566434165109 489.97706779784846L1012.2566434165109 489.97706779784846Q1012.2566434165109 496.1267613252746 1016.7430746375869 499.82533145386896Q1021.2513908890096 503.5239015824633 1029.4363922386801 503.5239015824633ZM1099.8624198943999 512.825039479816L1086.6438615649859 512.825039479816L1086.6438615649859 399.3730421624598L1099.8624198943999 399.3730421624598L1099.8624198943999 512.825039479816ZM1129.6479461962754 417.3406520771105L1129.6479461962754 417.3406520771105Q1125.708640733867 417.3406520771105 1123.1043221226082 414.73633346585177Q1120.5218885416962 412.132014854593 1120.5218885416962 408.19270939218484L1120.5218885416962 408.19270939218484Q1120.5218885416962 404.4065991422036 1123.1043221226082 401.8898206523317Q1125.708640733867 399.3730421624598 1129.6479461962754 399.3730421624598L1129.6479461962754 399.3730421624598Q1133.4340564462564 399.3730421624598 1136.1040301485555 401.8898206523317Q1138.7958888812009 404.4065991422036 1138.7958888812009 408.19270939218484L1138.7958888812009 408.19270939218484Q1138.7958888812009 412.132014854593 1136.1040301485555 414.73633346585177Q1133.4340564462564 417.3406520771105 1129.6479461962754 417.3406520771105ZM1136.2791103913291 512.825039479816L1123.0386670315681 512.825039479816L1123.0386670315681 434.6735961117066L1136.2791103913291 434.6735961117066L1136.2791103913291 512.825039479816ZM1235.7028032564426 512.825039479816L1201.8247762797323 512.825039479816L1201.8247762797323 402.5244865323864L1235.7028032564426 402.5244865323864Q1264.8536636782633 402.5244865323864 1278.6412327966923 417.3406520771105Q1292.4288019151209 432.1568176218347 1292.4288019151209 457.98115343095515L1292.4288019151209 457.98115343095515Q1292.4288019151209 483.36778863314134 1278.6412327966923 498.0964140564787Q1264.8536636782633 512.825039479816 1235.7028032564426 512.825039479816L1235.7028032564426 512.825039479816ZM1215.065219639493 413.55454182712936L1215.065219639493 501.7949841850731L1235.374527801242 501.7949841850731Q1251.4600251060756 501.7949841850731 1260.9800133068952 496.5206918715154Q1270.521886538062 491.2463995579577 1274.6143872128969 481.3981359019372Q1278.7068878877321 471.54987224591673 1278.7068878877321 457.98115343095515L1278.7068878877321 457.98115343095515Q1278.7068878877321 444.1279292214863 1274.6143872128969 434.19212544407895Q1270.521886538062 424.2782066970183 1260.9800133068952 418.9163742620738Q1251.4600251060756 413.55454182712936 1235.374527801242 413.55454182712936L1235.374527801242 413.55454182712936L1215.065219639493 413.55454182712936ZM1318.7346083918687 417.3406520771105L1318.7346083918687 417.3406520771105Q1314.7953029294608 417.3406520771105 1312.190984318202 414.73633346585177Q1309.60855073729 412.132014854593 1309.60855073729 408.19270939218484L1309.60855073729 408.19270939218484Q1309.60855073729 404.4065991422036 1312.190984318202 401.8898206523317Q1314.7953029294608 399.3730421624598 1318.7346083918687 399.3730421624598L1318.7346083918687 399.3730421624598Q1322.5207186418502 399.3730421624598 1325.190692344149 401.8898206523317Q1327.8825510767947 404.4065991422036 1327.8825510767947 408.19270939218484L1327.8825510767947 408.19270939218484Q1327.8825510767947 412.132014854593 1325.190692344149 414.73633346585177Q1322.5207186418502 417.3406520771105 1318.7346083918687 417.3406520771105ZM1325.3657725869227 512.825039479816L1312.1253292271617 512.825039479816L1312.1253292271617 434.6735961117066L1325.3657725869227 434.6735961117066L1325.3657725869227 512.825039479816ZM1379.2467173005282 488.24815040045814L1379.2467173005282 488.24815040045814Q1372.6374381358212 488.24815040045814 1367.1224104884498 486.51923300306794L1367.1224104884498 486.51923300306794L1359.2437995636333 493.91637326025665Q1360.9727169610237 495.18570502036596 1363.5770355722823 496.03922120388773Q1366.1594691531943 496.9146224177562 1371.061715950858 497.614943388851Q1375.9420777181747 498.3371493902925 1384.7617449478996 499.12501048277414L1384.7617449478996 499.12501048277414Q1400.5189667975326 500.2192620001098 1407.3033262050133 506.3689555275359Q1414.0658005821474 512.518649054962 1414.0658005821474 522.4325678020227L1414.0658005821474 522.4325678020227Q1414.0658005821474 529.2169272095034 1410.367230453553 535.3666207369296Q1406.6686603249586 541.494429234009 1399.0307847339561 545.4337346964172Q1391.3710241126068 549.3730401588255 1379.399912512955 549.3730401588255L1379.399912512955 549.3730401588255Q1368.85132788584 549.3730401588255 1360.644441505823 546.6155263351397Q1352.4594401561526 543.858012511454 1347.8854688136896 538.2773297730423Q1343.3114974712266 532.674762004284 1343.3114974712266 524.1614851994129L1343.3114974712266 524.1614851994129Q1343.3114974712266 519.7625940997239 1345.6750807486715 514.6414969985931Q1348.0386640261165 509.5203998974624 1354.5166330087434 504.9464285549996L1354.5166330087434 504.9464285549996Q1351.036913183616 503.5239015824633 1348.6076748151313 501.8825243064599Q1346.1565514162994 500.2192620001098 1344.0993585637084 498.1620691475188L1344.0993585637084 498.1620691475188L1344.0993585637084 494.5510391403113L1357.4929971358963 481.3105957805504Q1348.2137442688904 473.43198485573396 1348.2137442688904 460.51981695117377L1348.2137442688904 460.51981695117377Q1348.2137442688904 452.79440123878436 1351.8247742760977 446.49151249893123Q1355.4576893136523 440.1886237590781 1362.3952439335599 436.4900536304837Q1369.310913523121 432.7695984715427 1379.2467173005282 432.7695984715427L1379.2467173005282 432.7695984715427Q1386.0310767080089 432.7695984715427 1391.5461043553807 434.6735961117066L1391.5461043553807 434.6735961117066L1420.3686893220004 434.6735961117066L1420.3686893220004 444.5875148587673L1405.7276040200502 445.2221807388219Q1410.2796903321662 451.85334493387575 1410.2796903321662 460.51981695117377L1410.2796903321662 460.51981695117377Q1410.2796903321662 468.22334763321646 1406.5811202035718 474.5262363730696Q1402.8825500749774 480.8291251129227 1396.0325355764564 484.5495802718638Q1389.1825210779355 488.24815040045814 1379.2467173005282 488.24815040045814ZM1379.2467173005282 477.3712903181422L1379.2467173005282 477.3712903181422Q1387.6067988929724 477.3712903181422 1392.5528157513293 473.0380543094932Q1397.520717640033 468.7048183008442 1397.520717640033 460.51981695117377L1397.520717640033 460.51981695117377Q1397.520717640033 452.46612578358366 1392.5528157513293 448.13288977493465Q1387.6067988929724 443.79965376628564 1379.2467173005282 443.79965376628564L1379.2467173005282 443.79965376628564Q1370.733440495657 443.79965376628564 1365.7655386069537 448.13288977493465Q1360.8195217485966 452.46612578358366 1360.8195217485966 460.51981695117377L1360.8195217485966 460.51981695117377Q1360.8195217485966 468.7048183008442 1365.7655386069537 473.0380543094932Q1370.733440495657 477.3712903181422 1379.2467173005282 477.3712903181422ZM1356.2455504061336 522.9140384696503L1356.2455504061336 522.9140384696503Q1356.2455504061336 530.7926493944667 1362.8548295708408 534.6444147354881Q1369.4859937658946 538.5180651068562 1379.399912512955 538.5180651068562L1379.399912512955 538.5180651068562Q1389.1825210779355 538.5180651068562 1395.0914792715478 534.2504841892473Q1401.0004374651603 530.0047883019852 1401.0004374651603 522.9140384696503L1401.0004374651603 522.9140384696503Q1401.0004374651603 517.8585964595597 1396.8860517599785 514.1600263309655Q1392.7935510851432 510.4614562023711 1381.7634957904002 509.8267903223164L1381.7634957904002 509.8267903223164Q1373.0970237731021 509.1921244422618 1366.794135033249 508.2510681373532L1366.794135033249 508.2510681373532Q1360.3380510809689 511.7307879624804 1358.2808582283778 515.7357485159287Q1356.2455504061336 519.7625940997239 1356.2455504061336 522.9140384696503ZM1443.369856216395 417.3406520771105L1443.369856216395 417.3406520771105Q1439.4305507539868 417.3406520771105 1436.8481171730748 414.73633346585177Q1434.243798561816 412.132014854593 1434.243798561816 408.19270939218484L1434.243798561816 408.19270939218484Q1434.243798561816 404.4065991422036 1436.8481171730748 401.8898206523317Q1439.4305507539868 399.3730421624598 1443.369856216395 399.3730421624598L1443.369856216395 399.3730421624598Q1447.1559664663762 399.3730421624598 1449.847825199022 401.8898206523317Q1452.5177989013207 404.4065991422036 1452.5177989013207 408.19270939218484L1452.5177989013207 408.19270939218484Q1452.5177989013207 412.132014854593 1449.847825199022 414.73633346585177Q1447.1559664663762 417.3406520771105 1443.369856216395 417.3406520771105ZM1450.001020411449 512.825039479816L1436.7605770516882 512.825039479816L1436.7605770516882 434.6735961117066L1450.001020411449 434.6735961117066L1450.001020411449 512.825039479816ZM1515.853076724706 512.825039479816L1503.8819651250544 512.825039479816Q1493.1801852855122 512.825039479816 1487.0304917580859 507.6164022572985Q1480.88079823066 502.4296500651277 1480.88079823066 488.8828162805128L1480.88079823066 488.8828162805128L1480.88079823066 445.8568466188766L1467.333964446045 445.8568466188766L1467.333964446045 434.6735961117066L1480.88079823066 434.6735961117066L1482.60971562805 415.91812510457424L1494.1212415904208 415.91812510457424L1494.1212415904208 434.6735961117066L1517.1224084848152 434.6735961117066L1517.1224084848152 445.8568466188766L1494.1212415904208 445.8568466188766L1494.1212415904208 488.8828162805128Q1494.1212415904208 496.27995653770154 1497.1194907479203 498.88427514896034Q1500.095854875073 501.4885937602191 1507.6680753750356 501.4885937602191L1507.6680753750356 501.4885937602191L1515.853076724706 501.4885937602191L1515.853076724706 512.825039479816ZM1559.9732979036778 514.7071520896333L1559.9732979036778 514.7071520896333Q1550.2125743690442 514.7071520896333 1543.756490416764 511.4025125072797Q1537.300406464484 508.09787292492615 1534.1489620945574 502.58284527755467Q1530.9975177246308 497.0678176301832 1530.9975177246308 490.6117336779031L1530.9975177246308 490.6117336779031Q1530.9975177246308 478.6406220782515 1540.1235753792098 472.1626530956247Q1549.2715180641355 465.7065691433446 1565.0287399137685 465.7065691433446L1565.0287399137685 465.7065691433446L1586.1477941983455 465.7065691433446L1586.1477941983455 464.76551283843594Q1586.1477941983455 454.5233186361746 1580.785961763401 449.249026322617Q1575.4241293284567 443.9747340090593 1566.4512668863047 443.9747340090593L1566.4512668863047 443.9747340090593Q1558.7258511739153 443.9747340090593 1553.1232834051568 447.82649935008067Q1547.542600666745 451.678264691102 1546.120073694209 459.0972899786375L1546.120073694209 459.0972899786375L1532.5732399095943 459.0972899786375Q1533.3611010020757 450.58401317376644 1538.3071178604328 444.76259510154097Q1543.2750197491364 438.9192919989688 1550.6940450366717 435.8553877504291Q1558.0911852938605 432.7695984715427 1566.4512668863047 432.7695984715427L1566.4512668863047 432.7695984715427Q1582.8212695856453 432.7695984715427 1591.0938110567024 441.5236106102276Q1599.3663525277598 450.27762274891245 1599.3663525277598 464.76551283843594L1599.3663525277598 464.76551283843594L1599.3663525277598 512.825039479816L1587.5484361405354 512.825039479816L1586.7605750480536 498.7967350275735Q1583.4559354657001 505.4278992226273 1577.0873916348069 510.0675256561303Q1570.6969627735668 514.7071520896333 1559.9732979036778 514.7071520896333ZM1562.0304907562688 503.5239015824633L1562.0304907562688 503.5239015824633Q1569.6027112562313 503.5239015824633 1575.0301987822158 499.5845961200551Q1580.4576863082004 495.6452906576469 1583.302740253273 489.3424019177938Q1586.1477941983455 483.03951317794065 1586.1477941983455 476.1019585580329L1586.1477941983455 476.1019585580329L1586.1477941983455 475.9487633456059L1566.122991431104 475.9487633456059Q1554.4582702563064 475.9487633456059 1549.6654486103764 479.97560892940095Q1544.8507419340997 483.9805694828493 1544.8507419340997 489.97706779784846L1544.8507419340997 489.97706779784846Q1544.8507419340997 496.1267613252746 1549.3371731551756 499.82533145386896Q1553.8454894065983 503.5239015824633 1562.0304907562688 503.5239015824633ZM1632.4565184119886 512.825039479816L1619.2379600825745 512.825039479816L1619.2379600825745 399.3730421624598L1632.4565184119886 399.3730421624598L1632.4565184119886 512.825039479816ZM1731.9020963074493 514.7071520896333L1731.9020963074493 514.7071520896333Q1719.7559044650238 514.7071520896333 1710.7830420228718 510.3082609899441Q1701.7882945503732 505.8874848599082 1696.9079327830561 498.00887393509186Q1692.0275710157393 490.1302630102754 1692.0275710157393 479.73487359558715L1692.0275710157393 479.73487359558715L1705.902680255555 479.73487359558715Q1705.902680255555 486.19095754786724 1708.8790443827077 491.6403301041986Q1711.8772935402073 497.0678176301832 1717.6330565213927 500.3068021214966Q1723.3888195025781 503.5239015824633 1731.9020963074493 503.5239015824633L1731.9020963074493 503.5239015824633Q1743.085346814619 503.5239015824633 1749.2350403420453 498.1620691475188Q1755.3628488391246 492.822121742921 1755.3628488391246 484.7684305753309L1755.3628488391246 484.7684305753309Q1755.3628488391246 478.15915141062385 1752.5396799243988 474.13230582682877Q1749.694625979326 470.12734527338046 1744.901804333396 467.61056678350855Q1740.0870976571193 465.0719032632899 1733.8717490386532 463.18979065347264Q1727.6345153898403 461.3076780436554 1720.872041012706 458.94409476621047L1720.872041012706 458.94409476621047Q1708.0911832902264 454.5233186361746 1701.9633747931468 447.9796945625077Q1695.8136812657206 441.4360704888407 1695.8136812657206 430.8874858617254L1695.8136812657206 430.8874858617254Q1695.6604860532937 422.06781863200035 1699.9061819405558 415.2178041334795Q1704.151877827818 408.3459046046118 1711.9648336615944 404.49413926359045Q1719.7559044650238 400.6423739225691 1730.4795693349129 400.6423739225691L1730.4795693349129 400.6423739225691Q1741.0281539620282 400.6423739225691 1748.8411097958044 404.5816793849773Q1756.632180599234 408.52098484738553 1760.9654166078828 415.4366544369466Q1765.298652616532 422.3742090568544 1765.451847828959 431.1938762865794L1765.451847828959 431.1938762865794L1751.5986236194901 431.1938762865794Q1751.5986236194901 426.6417899744632 1749.2350403420453 422.13347372304054Q1746.8714570646002 417.6470425019645 1742.0567503883235 414.8238735872386Q1737.2420437120468 411.97881964216606 1729.9980986672851 411.97881964216606L1729.9980986672851 411.97881964216606Q1721.025236225133 411.82562442973904 1715.269473243948 416.5527909846289Q1709.5137102627625 421.27995753951876 1709.5137102627625 429.6181541016161L1709.5137102627625 429.6181541016161Q1709.5137102627625 436.70890393395086 1713.5405558465575 440.4950141839321Q1717.5455164000057 444.2811244339133 1724.8113464751143 446.7322478327451Q1732.0552915198762 449.1614862012301 1741.5096246296557 452.3129305711567L1741.5096246296557 452.3129305711567Q1749.3882355544722 455.15798451622925 1755.6911242943254 458.94409476621047Q1761.9940130341786 462.708319985845 1765.5393879503456 468.7048183008442Q1769.084762866513 474.7013166158433 1769.084762866513 483.9805694828493L1769.084762866513 483.9805694828493Q1769.084762866513 491.8591804076657 1764.9922621916778 498.88427514896034Q1760.8778764864962 505.8874848599082 1752.6053350154389 510.3082609899441Q1744.3327935443817 514.7071520896333 1731.9020963074493 514.7071520896333ZM1822.9657075801185 514.7071520896333L1822.9657075801185 514.7071520896333Q1811.7824570729488 514.7071520896333 1802.8752497218368 509.5860549885026Q1793.9680423707252 504.46495788737195 1788.8469452695942 495.2513601114061Q1783.7258481684637 486.0377623354402 1783.7258481684637 473.73837528058795L1783.7258481684637 473.73837528058795Q1783.7258481684637 461.4608732560824 1788.8469452695942 452.24727548011657Q1793.9680423707252 443.011792673804 1802.8752497218368 437.89069557267334Q1811.7824570729488 432.7695984715427 1822.9657075801185 432.7695984715427L1822.9657075801185 432.7695984715427Q1836.8408168199342 432.7695984715427 1846.3608050207542 440.03542854665113Q1855.9026782519206 447.2793735914129 1858.4194567417924 459.4036804034914L1858.4194567417924 459.4036804034914L1844.8726229571778 459.4036804034914Q1843.2969007722143 452.1597353587297 1837.147207244788 448.13288977493465Q1830.9975137173622 444.1279292214863 1822.8125123676916 444.1279292214863L1822.8125123676916 444.1279292214863Q1816.2032332029846 444.1279292214863 1810.3599301004126 447.43256880383984Q1804.538512028187 450.7372083861934 1800.9055969906328 457.36837258124723Q1797.294566983425 463.9776517459543 1797.294566983425 473.73837528058795L1797.294566983425 473.73837528058795Q1797.294566983425 483.5209838455683 1800.9055969906328 490.1302630102754Q1804.538512028187 496.7614272053292 1810.3599301004126 500.13172187872294Q1816.2032332029846 503.5239015824633 1822.8125123676916 503.5239015824633L1822.8125123676916 503.5239015824633Q1830.9975137173622 503.5239015824633 1837.147207244788 499.51894102901497Q1843.2969007722143 495.4920954452199 1844.8726229571778 488.0949551880312L1844.8726229571778 488.0949551880312L1858.4194567417924 488.0949551880312Q1856.0558734643475 499.9128715752558 1846.4483451421409 507.3100118324445Q1836.8408168199342 514.7071520896333 1822.9657075801185 514.7071520896333ZM1902.8679533759648 514.7071520896333L1902.8679533759648 514.7071520896333Q1893.085344810985 514.7071520896333 1886.6292608587044 511.4025125072797Q1880.1731769064243 508.09787292492615 1877.0217325364981 502.58284527755467Q1873.870288166571 497.0678176301832 1873.870288166571 490.6117336779031L1873.870288166571 490.6117336779031Q1873.870288166571 478.6406220782515 1882.9963458211503 472.1626530956247Q1892.1442885060762 465.7065691433446 1907.9015103557088 465.7065691433446L1907.9015103557088 465.7065691433446L1929.0205646402862 465.7065691433446L1929.0205646402862 464.76551283843594Q1929.0205646402862 454.5233186361746 1923.6587322053417 449.249026322617Q1918.2968997703972 443.9747340090593 1909.3240373282454 443.9747340090593L1909.3240373282454 443.9747340090593Q1901.5986216158556 443.9747340090593 1895.9960538470975 447.82649935008067Q1890.4153711086858 451.678264691102 1888.9928441361496 459.0972899786375L1888.9928441361496 459.0972899786375L1875.4460103515346 459.0972899786375Q1876.2338714440164 450.58401317376644 1881.20177333272 444.76259510154097Q1886.1477901910769 438.9192919989688 1893.5668154786124 435.8553877504291Q1900.9639557358007 432.7695984715427 1909.3240373282454 432.7695984715427L1909.3240373282454 432.7695984715427Q1925.7159250579327 432.7695984715427 1933.9884665289899 441.5236106102276Q1942.261008000047 450.27762274891245 1942.261008000047 464.76551283843594L1942.261008000047 464.76551283843594L1942.261008000047 512.825039479816L1930.4430916128224 512.825039479816L1929.6552305203406 498.7967350275735Q1926.3287059076404 505.4278992226273 1919.9601620767473 510.0675256561303Q1913.5697332155075 514.7071520896333 1902.8679533759648 514.7071520896333ZM1904.903261198209 503.5239015824633L1904.903261198209 503.5239015824633Q1912.475481698172 503.5239015824633 1917.9029692241563 499.5845961200551Q1923.3523417804874 495.6452906576469 1926.1755106952135 489.3424019177938Q1929.0205646402862 483.03951317794065 1929.0205646402862 476.1019585580329L1929.0205646402862 476.1019585580329L1929.0205646402862 475.9487633456059L1908.9957618730443 475.9487633456059Q1897.3529257285934 475.9487633456059 1892.5382190523171 479.97560892940095Q1887.72351237604 483.9805694828493 1887.72351237604 489.97706779784846L1887.72351237604 489.97706779784846Q1887.72351237604 496.1267613252746 1892.2318286274628 499.82533145386896Q1896.718259848539 503.5239015824633 1904.903261198209 503.5239015824633ZM1975.351173884276 512.825039479816L1962.1107305245148 512.825039479816L1962.1107305245148 434.6735961117066L1974.0818421241668 434.6735961117066L1974.8697032166485 448.70190056394915Q1978.6558134666295 441.28287527641373 1985.746563298964 437.03717938915156Q1992.837313131299 432.7695984715427 2001.8101755734508 432.7695984715427L2001.8101755734508 432.7695984715427Q2015.6852848132664 432.7695984715427 2023.9578262843236 441.2172201853736Q2032.2303677553812 449.6429568688578 2032.2303677553812 467.1290961158809L2032.2303677553812 467.1290961158809L2032.2303677553812 512.825039479816L2018.98992439562 512.825039479816L2018.98992439562 468.55162308841716Q2018.98992439562 444.1279292214863 1998.8119264159511 444.1279292214863L1998.8119264159511 444.1279292214863Q1988.7448124564637 444.1279292214863 1982.04799317037 451.4594143876349Q1975.351173884276 458.7690145234368 1975.351173884276 472.3377333383984L1975.351173884276 472.3377333383984L1975.351173884276 512.825039479816Z " fill="#3f3d56" transform="matrix(0.43785274442610883,0,0,0.4378527444261087,-14.81766482242475,92.2944823133517)"/></g></svg>